PathFileType	4	(X/Y/Z)	Walking02.trc	
DataRate	CameraRate	NumFrames	NumMarkers	Units	OrigDataRate	OrigDataStartFrame	OrigNumFrames	
100.00	100.00	15	19	mm	100.00	318	98	
Frame#	Time	RPSI			LPSI			RASI			LASI			RTHI			RKNE			RHFB			RTUB			RSHN			RANK			RLCA			RSTL			RPCA			RCPG			RHEE			RP5M			RP1M			RD5M			RTOE			
		X1	Y1	Z1	X2	Y2	Z2	X3	Y3	Z3	X4	Y4	Z4	X5	Y5	Z5	X6	Y6	Z6	X7	Y7	Z7	X8	Y8	Z8	X9	Y9	Z9	X10	Y10	Z10	X11	Y11	Z11	X12	Y12	Z12	X13	Y13	Z13	X14	Y14	Z14	X15	Y15	Z15	X16	Y16	Z16	X17	Y17	Z17	X18	Y18	Z18	X19	Y19	Z19	

1	0.000	-836.20947	889.36060	-33.90411	-843.50031	902.60797	-125.67866	-636.66510	851.36005	9.97625	-662.24451	838.57025	-229.88765	-632.88788	553.91309	57.40780	-566.28271	430.58005	32.19020	-555.61591	391.30084	32.24529	-495.42914	401.93610	-18.15978	-482.37082	328.98837	-24.10698	-479.54190	63.22868	7.79907	-482.91202	37.36361	1.24081	-467.53070	41.68886	-62.03739	-509.88745	52.08791	-37.71140	-528.81909	33.43550	-41.43626	-504.68939	14.24982	-42.10411	-385.88971	35.11891	35.39044	-376.08093	90.31591	-38.82132	-355.18570	45.17798	45.18797	-326.01913	77.26775	8.47253 
2	0.010	-819.55096	889.29327	-33.10581	-825.94226	901.75714	-125.07983	-619.86414	851.77344	12.13707	-643.46979	838.46423	-227.44598	-614.77850	554.09399	59.12135	-551.48010	429.11081	33.24949	-542.75684	389.06561	33.70976	-480.51038	400.00964	-17.01008	-468.43967	326.12601	-23.39481	-473.69684	62.40883	7.76315	-478.80093	37.27742	1.36772	-463.40741	40.79354	-62.13015	-504.97348	53.34199	-37.78371	-525.00391	36.55317	-41.38007	-502.34436	16.13634	-42.12550	-382.17487	28.28832	34.76600	-368.57269	83.08120	-39.30410	-350.92697	35.86348	44.38060	-318.89932	65.86526	8.34845 
3	0.020	-803.49371	889.69849	-32.06406	-808.65002	901.11536	-124.57965	-603.43805	852.05841	14.47777	-624.70538	838.30579	-224.48901	-597.54028	554.64349	60.46999	-537.94885	428.08588	34.90073	-530.29834	388.08511	35.49421	-465.28452	400.16028	-16.32717	-455.16901	325.01520	-22.31608	-468.08673	62.61363	8.55693	-475.01569	37.41972	1.75860	-460.55823	40.36666	-61.95214	-500.96964	55.26088	-36.49578	-521.98779	39.71908	-40.69223	-500.61356	18.03237	-41.58938	-379.14319	23.34248	34.17879	-362.12836	76.81559	-40.37855	-347.19290	28.77628	43.13588	-313.23804	57.11710	7.29407 
4	0.030	-787.17767	890.41852	-30.76929	-791.79730	900.64966	-124.24461	-587.36560	852.41785	17.07155	-605.79779	838.35754	-220.88803	-582.37659	555.83826	61.99817	-524.30573	429.00320	37.31075	-516.18561	389.71320	37.64793	-450.48492	400.57388	-15.01226	-442.78055	325.56924	-21.49416	-464.66107	62.11286	9.20970	-472.67072	37.12976	2.10847	-458.96591	40.15515	-61.57940	-498.33084	56.47895	-35.59975	-520.15808	41.87346	-39.11277	-499.63034	19.50057	-40.76255	-377.47305	18.70023	34.15515	-359.25592	72.36514	-40.93485	-344.31284	22.63319	41.98417	-310.63043	49.79007	4.64906 
5	0.040	-770.81433	891.37030	-29.65676	-775.42932	900.10309	-124.10720	-571.38019	853.17822	19.67960	-587.17609	838.63873	-216.82912	-568.37982	557.49115	64.46429	-509.01944	431.65918	40.27377	-500.76926	392.58017	40.09460	-436.03604	400.71194	-13.21600	-430.91376	325.98248	-20.46462	-462.18765	62.26961	9.73201	-471.31073	37.63054	2.83062	-458.27072	39.86883	-61.26258	-496.24091	57.70296	-35.00346	-518.63184	43.56312	-37.94149	-498.83676	20.70665	-40.21017	-377.30914	15.18436	35.25161	-356.71661	68.35576	-41.15410	-342.62640	18.45028	42.81285	-308.67599	42.94250	4.21366 
6	0.050	-754.77484	892.43872	-29.02276	-759.52612	899.35413	-124.24506	-555.66254	854.47339	22.12508	-570.44409	838.62177	-212.84625	-553.95288	559.30536	67.71438	-492.53656	434.61310	42.92868	-484.93491	395.14163	42.45179	-422.24835	400.43909	-11.68428	-419.60590	325.53278	-19.38921	-459.79642	62.80480	10.02945	-469.90186	38.10351	3.07722	-458.29361	39.48557	-61.28005	-494.20990	59.21090	-34.83389	-517.03882	45.22327	-37.60644	-497.95197	21.57058	-39.81076	-377.29712	13.07220	36.39330	-354.31860	65.44920	-41.08137	-341.96274	16.10936	44.29178	-306.45648	38.83677	4.89073 
7	0.060	-739.17731	893.43665	-28.95691	-744.01074	898.45825	-124.61615	-540.29211	856.30780	24.62206	-554.08862	838.69629	-209.07430	-538.54736	561.46210	70.91486	-475.87289	437.12692	44.93788	-469.23892	396.89212	44.41181	-409.29114	399.96021	-10.55072	-409.12534	324.30042	-18.29978	-458.32019	63.13665	9.97202	-469.08206	38.47948	2.99825	-457.86618	39.54380	-61.46816	-492.67142	60.42124	-35.09073	-516.12158	46.41966	-37.54704	-497.48126	22.16350	-39.63605	-377.14499	12.32668	36.89080	-353.09717	63.83587	-41.48057	-341.62903	15.25904	44.85031	-305.13431	36.71594	4.65306 
8	0.070	-724.06512	894.32562	-29.35082	-728.85327	897.42731	-125.17804	-525.68945	858.23901	27.22910	-537.96326	838.66852	-205.59903	-522.93274	563.59430	73.56545	-460.08350	438.80539	46.34688	-454.37961	397.68134	45.76572	-397.64716	399.25375	-9.70401	-399.79843	322.87354	-17.25874	-457.43796	63.27838	9.78958	-468.58829	38.76513	2.85573	-457.67508	39.56901	-61.64475	-491.75824	61.11654	-35.10996	-515.74048	47.04112	-37.26797	-497.32770	22.49354	-39.51960	-377.01523	12.12645	37.02720	-352.71799	62.43467	-42.44149	-341.38358	15.16896	44.86731	-304.72070	35.86644	3.38371 
9	0.080	-709.41016	895.09406	-29.99804	-714.04279	896.31274	-125.75811	-511.69543	860.02820	29.93807	-522.31427	838.34882	-202.40904	-508.14294	565.28510	75.79713	-445.99088	439.18268	47.48389	-441.42688	397.49817	46.71207	-386.79166	398.38303	-9.19482	-391.61609	321.40970	-16.44860	-456.67215	63.34124	9.68178	-468.21005	38.92882	2.75449	-457.44290	39.60967	-61.76085	-491.23175	61.77129	-35.08786	-515.43134	47.64806	-37.00416	-497.26709	22.72835	-39.52778	-376.96933	11.97422	37.14653	-352.28116	61.78382	-42.71820	-341.28586	14.99363	45.00933	-304.12228	35.25601	3.11349 
10	0.090	-695.23486	895.77429	-30.55315	-699.55310	895.25867	-126.22885	-498.06952	861.72083	32.71881	-507.17227	837.68677	-199.51994	-493.99344	566.65521	78.01166	-434.74020	438.15048	48.51464	-431.42545	396.38669	47.69390	-376.65491	397.60916	-8.92941	-384.67795	319.76636	-15.85069	-456.11017	63.37320	9.63335	-468.00085	39.10049	2.65770	-457.16949	39.70602	-61.88367	-490.86578	62.27160	-35.02010	-514.98059	48.48412	-36.96050	-497.28839	22.80806	-39.59702	-376.93967	11.86053	37.21593	-352.02448	61.37946	-42.84170	-341.24637	14.85761	45.15016	-303.81989	34.78632	3.21535 
11	0.100	-681.51709	896.55200	-30.71963	-685.37073	894.48383	-126.28169	-484.70184	863.40350	35.62365	-492.45383	836.94519	-196.93578	-480.24634	568.47693	80.32450	-426.66602	436.35925	49.62202	-424.54208	394.87814	48.89639	-369.98456	395.50183	-7.72076	-378.92511	317.85382	-15.40270	-455.74567	63.32590	9.62550	-467.90530	39.19689	2.59841	-456.98810	39.78131	-61.99153	-490.55981	62.67622	-35.01500	-514.65039	49.14380	-37.09826	-497.35815	22.73216	-39.68640	-376.91415	11.80745	37.29887	-351.94415	61.04734	-42.99032	-341.21402	14.81974	45.19747	-303.62326	34.58944	2.87046 
12	0.110	-667.98785	897.46173	-30.37144	-671.42273	894.20508	-125.81439	-471.57056	864.92584	38.68116	-478.17105	836.43201	-194.61290	-468.01358	570.75629	82.13310	-420.92313	434.71863	51.01365	-420.02478	393.64325	50.20841	-363.75287	393.21930	-6.09703	-374.16565	315.78815	-14.97924	-455.49173	63.22009	9.67961	-467.88556	39.23775	2.56940	-456.86880	39.87704	-62.02655	-490.30466	62.94998	-34.96925	-514.57788	49.50043	-37.07387	-497.44278	22.75998	-39.74537	-376.91498	11.71715	37.39060	-351.88519	60.82016	-43.00839	-341.21335	14.75656	45.28131	-303.48773	34.36287	2.90580 
13	0.120	-654.50574	898.66901	-29.67838	-657.67139	894.71082	-124.60679	-458.08270	866.34344	42.00009	-463.98352	836.65125	-192.69594	-458.83298	571.93915	83.53573	-416.73618	433.48343	52.28926	-416.55786	392.58899	51.23621	-358.29315	391.17023	-4.32758	-369.85110	314.10757	-14.27226	-455.33588	63.14954	9.68642	-467.90234	39.28730	2.54854	-456.76987	39.94796	-62.05038	-490.10550	63.22976	-34.91831	-514.58990	49.74855	-37.02791	-497.53000	22.86841	-39.82917	-376.95193	11.61205	37.45750	-351.87625	60.64379	-42.99923	-341.21320	14.70449	45.34452	-303.42026	34.26792	2.83358 
14	0.130	-641.08905	900.42267	-28.55097	-643.95630	896.13690	-122.91479	-444.74442	867.70715	45.24169	-450.02048	837.70715	-191.26193	-452.51144	571.20538	84.32891	-413.24026	432.81769	53.36156	-413.40872	391.64047	51.94968	-353.40668	389.51297	-2.87622	-366.06976	312.81100	-13.51740	-455.25128	63.14493	9.68746	-467.95395	39.34756	2.48628	-456.74380	39.98874	-62.08516	-489.92075	63.47019	-34.85191	-514.59174	50.05343	-37.11737	-497.60336	22.94476	-39.92179	-377.01804	11.51357	37.51982	-351.86462	60.51881	-42.92456	-341.24692	14.63546	45.43733	-303.38635	34.15344	2.87343 
15	0.140	-627.58148	902.76239	-26.96926	-630.16211	898.76550	-120.95784	-432.43045	869.02863	47.66681	-436.28082	839.57062	-190.11310	-447.01297	569.89911	84.55070	-409.43695	432.34717	54.16725	-410.01733	390.92526	52.46214	-349.00150	388.20798	-1.97013	-362.68170	311.84186	-12.66780	-455.21481	63.15507	9.68220	-468.02832	39.42966	2.42818	-456.71500	40.09740	-62.14100	-489.78488	63.72194	-34.81313	-514.62555	50.35061	-37.25334	-497.67761	23.00512	-40.01667	-377.07996	11.41017	37.61186	-351.86554	60.43068	-42.81741	-341.30069	14.54890	45.54357	-303.39764	34.07581	2.96509 
